<svg xmlns="http://www.w3.org/2000/svg" width="31" height="32" viewBox="0 0 39.337 40"><g fill-rule="evenodd" clip-rule="evenodd"><path fill="#FADF65" d="M39.337 19.861V9.157c0-.812-.665-1.477-1.474-1.477H1.477A1.482 1.482 0 0 0 0 9.157v10.704h39.337z"/><path fill="#0033A0" d="M0 19.861v10.983a1.48 1.48 0 0 0 1.477 1.475h36.387a1.48 1.48 0 0 0 1.474-1.475V19.861H0z"/><path d="M29.793 23.254c.175-.85.338-1.664.502-2.482.021-.109.065-.138.173-.135.416.008.825.004 1.252.004-.076.361-.148.714-.223 1.068a839.914 839.914 0 0 0-.75 3.578c-.022.107-.065.123-.159.121-.388-.002-.772-.008-1.162.002-.116.002-.162-.035-.198-.143-.257-.811-.522-1.619-.784-2.428-.012-.025-.025-.051-.049-.113l-.251 1.213c-.094.449-.187.902-.279 1.354-.014.076-.031.119-.13.117-.392-.008-.786-.004-1.177-.002-.084.002-.116-.01-.097-.105.319-1.518.636-3.035.946-4.55.022-.098.058-.115.145-.114.406.004.815.007 1.22-.001.097-.003.128.038.154.115.27.792.543 1.582.815 2.371.01.031.026.064.052.13zM6.018 25.407c.226-1.082.452-2.152.672-3.221.098-.467.199-.932.288-1.402.021-.113.064-.149.185-.149.437.011.875.007 1.318.007-.104.509-.211 1.007-.318 1.507-.025.104-.025.154.115.152.361-.012.725-.008 1.084 0 .086 0 .12-.023.135-.111.095-.467.2-.93.292-1.4.02-.106.052-.155.176-.155.438.012.874.007 1.323.007-.1.486-.197.966-.299 1.445-.218 1.051-.438 2.1-.655 3.152-.024.129-.065.176-.203.172-.431-.01-.859-.004-1.3-.004l.248-1.209c.039-.189.076-.385.122-.574.026-.094-.004-.109-.09-.107-.373.004-.745.004-1.117-.002-.09 0-.12.029-.141.115-.106.541-.224 1.08-.33 1.619-.021.123-.07.164-.202.162-.432-.01-.865-.004-1.303-.004zm7.955-4.88c.442.013.868.082 1.257.31.481.283.724.728.801 1.261.12.805 0 1.574-.457 2.262-.576.865-1.406 1.215-2.429 1.146-.454-.027-.876-.146-1.24-.436-.363-.293-.562-.682-.631-1.131-.125-.828.012-1.611.495-2.309.464-.672 1.116-1.033 1.937-1.087l.267-.016zm.633 2.054a1.507 1.507 0 0 0-.048-.367c-.082-.266-.253-.443-.538-.484-.37-.051-.691.061-.915.369-.367.492-.464 1.062-.375 1.656.047.32.257.523.531.561.389.059.716-.059.952-.377.286-.386.37-.827.393-1.358zm19.95 1.226c-.188 0-.37-.002-.557 0-.07.002-.097-.01-.075-.094.059-.275.116-.553.173-.834.01-.051.018-.098.089-.098.624.002 1.246.002 1.88.002-.076.379-.152.75-.229 1.115-.097.463-.198.922-.291 1.385-.016.088-.038.129-.14.127-.237-.008-.474-.004-.71-.002-.077.002-.106-.016-.096-.098.018-.119.019-.236.032-.396-.254.328-.562.516-.929.57-1.055.156-2.04-.248-2.256-1.527-.165-.982.063-1.887.744-2.645.431-.476.986-.708 1.619-.767.519-.045 1.023-.002 1.486.271.534.312.761.802.789 1.402.006.074-.021.092-.091.092-.406-.002-.805-.002-1.209-.002-.043 0-.085.006-.092-.062-.065-.5-.482-.576-.861-.508-.374.066-.607.318-.759.646-.188.404-.25.824-.19 1.262.061.428.318.658.75.68.341.014.65-.053.855-.361.033-.047.064-.091.068-.158zm-18.846 1.6l.823-3.941c.049-.238.098-.471.144-.71.017-.084.049-.12.146-.117.749.005 1.499-.003 2.247.005.496.004.951.135 1.211.592.409.721.335 1.865-.674 2.443a2.2 2.2 0 0 1-1.035.281c-.329.006-.664.006-.994 0-.099 0-.129.035-.15.119-.078.404-.16.809-.243 1.209-.013.055-.003.121-.1.121-.454-.002-.912-.002-1.375-.002zm1.989-2.571c.328-.012.653.029.966-.057.264-.072.392-.266.366-.541-.021-.215-.171-.346-.441-.361-.2-.012-.402-.008-.604-.01-.048-.002-.089.006-.103.064-.059.298-.121.597-.184.905zm2.42 2.571c.322-1.555.644-3.092.962-4.629.021-.099.055-.143.173-.143.724.008 1.445.007 2.173.007.223 0 .443.02.653.098.481.177.72.548.803 1.037.221 1.297-.747 2.131-1.863 2.178-.347.018-.695.012-1.042.006-.093 0-.122.035-.137.113-.081.4-.169.803-.246 1.207-.021.096-.051.131-.154.131-.437-.009-.876-.005-1.322-.005zm2.573-3.545l-.001.006c-.094 0-.189.004-.285-.002-.076-.004-.104.025-.118.098-.051.26-.105.518-.165.779-.02.076-.004.096.068.094.181-.006.355.002.531-.006.148-.004.301-.02.441-.082.204-.09.299-.27.273-.516-.019-.188-.126-.301-.354-.344-.128-.023-.259-.019-.39-.027zM2.739 23.807h.604c.045 0 .093-.018.104.066.082.512.322.678.837.584a.703.703 0 0 0 .394-.174c.191-.184.167-.434-.064-.564-.25-.139-.525-.189-.792-.275-.28-.088-.555-.182-.796-.35-.544-.387-.679-1.146-.311-1.73.229-.361.564-.576.966-.701a2.813 2.813 0 0 1 1.845.034c.571.21.881.668.89 1.268.001.105-.029.121-.125.121a34.66 34.66 0 0 0-1.117 0c-.073 0-.119-.006-.122-.102-.007-.186-.117-.301-.289-.357a.944.944 0 0 0-.621.012c-.145.055-.233.158-.239.318-.002.15.095.223.214.281.225.107.468.143.705.205.224.059.438.135.645.242.728.391.953 1.225.512 1.93-.3.477-.76.715-1.291.828-.652.143-1.29.107-1.89-.205-.53-.281-.774-.736-.773-1.332 0-.078.019-.105.099-.102.202.005.407.003.615.003zm21.785 1.6l.826-3.975c.046-.221.096-.438.134-.661.019-.093.043-.137.15-.134.406.008.813.008 1.222 0 .11-.003.12.035.105.127a877.515 877.515 0 0 0-.937 4.503c-.021.104-.058.145-.17.143-.439-.007-.875-.003-1.33-.003z" fill="#FADF65"/><path d="M21.59 19.512c.357-1.713.71-3.4 1.059-5.088.021-.102.057-.144.168-.144 1.346.009 2.691.009 4.036.002.133-.002.143.04.118.15-.076.348-.154.696-.215 1.05-.021.135-.08.15-.192.15-.794-.007-1.59 0-2.383-.007-.137-.001-.187.04-.202.163a2.71 2.71 0 0 1-.075.354c-.032.118.012.134.115.134.723-.003 1.446-.001 2.173-.001.198 0 .2 0 .156.198-.062.308-.131.612-.188.919-.019.108-.056.134-.16.134-.737-.005-1.478.001-2.218-.009-.138 0-.189.043-.207.171-.024.159-.062.313-.096.487h.771c.611 0 1.225.002 1.836-.004.115 0 .158.021.13.145-.082.362-.16.729-.23 1.096-.021.117-.091.1-.167.1H21.59zm-9.898 0c.356-1.711.703-3.393 1.053-5.077.023-.108.052-.154.176-.154.844.009 1.686.004 2.53.004.298.005.595.03.882.128.42.143.678.43.759.869.174.939-.303 1.637-1.101 1.799-.023.004-.048.015-.088.031.46.148.523.521.545.912.021.381-.037.762 0 1.143.01.115.041.225.064.346-.487 0-.966-.004-1.446.002-.121.002-.115-.086-.123-.154a2.621 2.621 0 0 1 .003-.691c.02-.117.038-.238.046-.36.025-.387-.131-.58-.516-.61-.251-.018-.497 0-.745-.01-.095-.002-.089.061-.098.113-.108.516-.22 1.023-.323 1.537-.022.119-.047.185-.201.182-.467-.02-.936-.01-1.417-.01zm2.736-2.946v-.002c.135 0 .274.008.413-.002a.82.82 0 0 0 .449-.139.517.517 0 0 0 .207-.568c-.056-.194-.217-.312-.465-.318-.275-.006-.552 0-.83-.006-.074 0-.104.029-.118.098-.057.272-.111.548-.173.821-.024.097.006.124.102.122.138-.01.277-.006.415-.006zm-8.521 2.946c.482-.836.947-1.633 1.412-2.439.519-.892 1.034-1.784 1.546-2.678.044-.074.083-.114.176-.112.447.007.896.007 1.34 0 .107-.002.138.034.151.14.17 1.107.346 2.215.519 3.324.084.551.165 1.109.254 1.662.012.078.012.105-.08.104H9.838c-.078.002-.102-.021-.111-.1-.012-.178-.043-.357-.054-.542-.013-.083-.041-.111-.125-.108a83.78 83.78 0 0 1-1.504-.003c-.084 0-.116.038-.148.103-.096.184-.198.367-.295.551-.027.055-.05.102-.13.1-.51-.003-1.022-.002-1.564-.002zm3.453-3.455l-.826 1.59c.313 0 .602-.002.886.005.101.002.115-.022.107-.12-.063-.477-.112-.951-.167-1.475zm20.907 3.455l.321-.559c.881-1.52 1.762-3.038 2.639-4.559.044-.076.08-.114.175-.112.448.007.892.007 1.341 0 .105-.002.133.036.15.14.168 1.1.339 2.205.514 3.308.087.56.165 1.118.256 1.679.014.08.012.105-.078.104a321.09 321.09 0 0 0-1.388 0c-.08.002-.102-.021-.107-.1-.014-.182-.045-.359-.061-.542-.006-.083-.038-.111-.122-.108-.503.003-1.003.003-1.504-.003-.084 0-.114.042-.15.103-.1.184-.195.369-.294.551-.025.045-.038.1-.112.1-.517-.003-1.033-.002-1.58-.002zm3.451-3.455l-.825 1.59c.319 0 .604-.002.894.005.08 0 .114-.013.099-.109-.058-.481-.108-.956-.168-1.486zM5.372 14.284c.702 0 1.409.005 2.116-.002.122-.002.145.028.114.147a25.1 25.1 0 0 0-.217 1.051c-.021.115-.066.156-.189.152-.386-.008-.775 0-1.161-.007-.099 0-.142.026-.162.126-.243 1.197-.493 2.39-.731 3.586-.032.142-.081.183-.222.179-.42-.012-.838-.014-1.257 0-.143.004-.173-.032-.147-.168.177-.812.348-1.625.517-2.437.08-.382.154-.762.239-1.145.022-.109-.004-.142-.12-.141-.374.007-.747-.001-1.123.007-.137.002-.194-.007-.148-.175.088-.347.153-.696.217-1.048.02-.104.06-.128.159-.128.701.008 1.411.003 2.115.003zm24.36 0c.694 0 1.39.005 2.082-.002.131-.002.186.007.144.165-.087.341-.148.686-.213 1.035-.023.118-.073.154-.194.15-.379-.008-.761.002-1.143-.007-.115-.001-.158.031-.182.145-.22 1.087-.443 2.173-.667 3.26-.031.159-.021.372-.114.45-.098.082-.308.03-.466.03-.325.001-.649-.009-.975.005-.136.007-.152-.036-.127-.156.172-.809.342-1.621.508-2.435.081-.38.156-.765.244-1.146.027-.13-.015-.154-.136-.153-.385.009-.772 0-1.158.007-.099 0-.135-.008-.106-.126.084-.366.16-.73.227-1.099.02-.104.065-.126.16-.124.706.006 1.407.001 2.116.001zm-7.886 0c-.266 1.26-.519 2.504-.793 3.743-.271 1.215-1.075 1.664-2.325 1.598-.202-.01-.4-.042-.595-.109-.571-.193-.896-.617-.908-1.22a3.466 3.466 0 0 1 .107-.883c.021-.075.047-.095.119-.095.416.002.83.002 1.242 0 .088 0 .102.024.081.104a16.98 16.98 0 0 0-.093.47c-.045.263.052.452.245.491.256.053.448-.064.507-.344.204-.926.399-1.856.599-2.786.062-.291.128-.579.187-.869.017-.072.027-.102.108-.1.502.005 1.002 0 1.519 0z" fill="#0033A0"/></g></svg>