<svg id="Layer_2" data-name="Layer 2" xmlns="http://www.w3.org/2000/svg" xmlns:xlink="http://www.w3.org/1999/xlink" viewBox="0 0 400 300" data-imageid="personal-data-3" imageName="Personal data" class="illustrations_image" style="width: 216px;"><defs><linearGradient id="linear-gradient" x1="87.12" y1="194.87" x2="73.94" y2="209.18" gradientUnits="userSpaceOnUse"><stop offset="0" stop-color="#5b1d5c"/><stop offset="1" stop-color="#f15a24"/></linearGradient><linearGradient id="linear-gradient-2" x1="254.88" y1="242.05" x2="239.24" y2="256.97" xlink:href="#linear-gradient"/><linearGradient id="linear-gradient-3" x1="211.93" y1="189.79" x2="194.85" y2="215.05" xlink:href="#linear-gradient"/><linearGradient id="linear-gradient-4" x1="328.53" y1="179.45" x2="312.89" y2="194.37" gradientUnits="userSpaceOnUse"><stop offset="0.01" stop-color="#a91d5c"/><stop offset="1" stop-color="#f15a24"/></linearGradient></defs><title>ZZZ</title><path d="M209.19,291,383.83,187.75c5.56-3.12,10.33-8.25,4.91-11.61l-175.27-101c-2.63-1.63-6.62-2.7-9.3-1.14L20.84,180.38c-5.56,3.23-6.56,12.25-1,15.48L186.17,290.8A23.22,23.22,0,0,0,209.19,291Z" fill="#f15a24"/><polyline points="154.19 162.53 71.44 206.5 51.35 193.23 80.53 174.79" opacity="0.32" fill="url(#linear-gradient)"/><polyline points="274.12 242.88 246.55 258.92 228.63 247.91 258.1 229.07" opacity="0.32" fill="url(#linear-gradient-2)"/><polyline points="258.75 204.66 215.75 233.11 153.3 192.4 191.91 168.43" opacity="0.32" fill="url(#linear-gradient-3)"/><path d="M92.26,66.94c-.34-.44-5.25-6.77-5.78-6.9s-11.3,5.77-11.3,5.77v123l66.7-35.33V39Z" fill="#dd8c2a"/><path d="M197.19,12.44c13.91,8.71,48.9,29,60.83,36.27,2.7,1.66,3.11,4.13,3.16,7.3l0,148.07a4.72,4.72,0,0,1-6.08.93l-58.71-33.18c-2.92-1.72-5.22-3.49-5.22-6.88l.51-149.83C191.65,11.88,194.43,10.72,197.19,12.44Z" fill="#000000" class="target-color"/><path d="M191.77,14.07l19.09,11v4.12a2,2,0,0,0,1,1.71l14.77,8.53a1.3,1.3,0,0,0,2-1.13v-3l27.73,16.26a1.76,1.76,0,0,1,.87,1.52V201.16a1.2,1.2,0,0,1-1.8,1L191.15,165a6.37,6.37,0,0,0,2.83,5.91c3.33,2.12,61.84,35.23,61.84,35.23s4.63,2.09,6-3.43v-149a6.09,6.09,0,0,0-2.51-4.94c-2.68-1.95-62.36-36.64-62.36-36.64S192.72,10.18,191.77,14.07Z" fill="#124577"/><polyline points="348.85 181.41 321.28 197.45 301.19 184.18 330.38 165.74" opacity="0.32" fill="url(#linear-gradient-4)"/><path d="M349,150.43c-.86-1.84-4.65-3.23-9.2-3.23s-8.53,1.46-9.25,3.37c-5.35,7.49-10.62,19.68-4,27.86a16.77,16.77,0,0,0,12.92,5.85h.79a16.77,16.77,0,0,0,12.92-5.85C359.73,170.2,354.35,157.9,349,150.43Z" fill="#000000" class="target-color"/><ellipse cx="339.76" cy="151.22" rx="9.39" ry="4.02" opacity="0.5"/><path d="M350.72,117.07a77.64,77.64,0,0,0-10.42,32.16,224.55,224.55,0,0,0-3.77-40.94c-.09-.48-.82-.28-.73.2a223.48,223.48,0,0,1,3.69,45.8.36.36,0,0,0,.48.35c0,.11,0,.22,0,.34a.38.38,0,0,0,.76,0,76.84,76.84,0,0,1,10.65-37.52A.38.38,0,0,0,350.72,117.07Z" fill="#2c9135"/><path d="M344.79,129.57s5.81-18.67,18.27-25.58c0,0-2.53,3.71-1.35,6.74s3,8.42-2.86,11.45-9.26,0-8.76,5.9,2.84,8.76-.94,11.62-7,5.36-8.25,11.52C340.9,151.22,342.32,135.78,344.79,129.57Z" fill="#2c9135"/><path d="M339.26,127.6s-2.41-28.69-7.46-35.94a13.34,13.34,0,0,1-1.42,8.07c-2.19,4.15-4.53,5.59-3.27,11s6.39,4.33,5.9,9.74-4.76,4.39-2.63,11.21S339.79,143,339.79,143" fill="#2c9135"/><path d="M104.6,75.92s-5.26-6.8-5.81-6.94-11.3,5.77-11.3,5.77V197.85l66.7-35.33V48Z" fill="#f9aa43"/><path d="M135.64,69.65l13.42-7.5c1.69-.94.17-3.53-1.51-2.59l-13.42,7.5c-1.69.94-.17,3.53,1.51,2.59Z" fill="#f2f2f2"/><line x1="101.23" y1="155.73" x2="146.58" y2="131.54" fill="none" stroke="#f2f2f2" stroke-miterlimit="10"/><line x1="101.23" y1="161.91" x2="146.58" y2="138.66" fill="none" stroke="#f2f2f2" stroke-miterlimit="10"/><line x1="101.23" y1="168.91" x2="146.58" y2="145.66" fill="none" stroke="#f2f2f2" stroke-miterlimit="10"/><line x1="101.23" y1="176.29" x2="147.14" y2="151.77" fill="none" stroke="#f2f2f2" stroke-miterlimit="10"/><ellipse cx="124.19" cy="110.43" rx="21.78" ry="13.14" transform="translate(-15.42 200.58) rotate(-74.5)" fill="#fff"/><ellipse cx="124.53" cy="105.24" rx="8.34" ry="5.48" transform="translate(-10.17 197.11) rotate(-74.5)" fill="#124577"/><path d="M115.35,129.85s3.17-18.22,10.69-18.15,8.17,9.66,8.17,9.66-3.87,7.09-9.83,9.53C118.74,133.21,115.35,129.85,115.35,129.85Z" fill="#124577"/><polygon points="207.03 99.32 238 117.27 238.25 71.06 206.72 53.95 207.03 99.32" fill="#fff"/><ellipse cx="220.93" cy="76.35" rx="6.15" ry="9.37" transform="translate(-12.37 61.83) rotate(-15.5)" fill="#124577"/><path d="M233.43,114.54s.29-28.61-12.91-31.41c-8.46-1.8-10.72,17.8-10.72,17.8Z" fill="#124577"/><line x1="243.95" y1="153.59" x2="198.61" y2="129.4" fill="#156689"/><path d="M244.71,152.3,199.36,128.1c-1.7-.91-3.22,1.68-1.51,2.59l45.35,24.19c1.7.91,3.22-1.68,1.51-2.59Z" fill="#144975"/><line x1="243.95" y1="159.77" x2="198.61" y2="136.52" fill="#156689"/><path d="M244.71,158.47l-45.35-23.25c-1.71-.88-3.23,1.71-1.51,2.59l45.35,23.25c1.71.88,3.23-1.71,1.51-2.59Z" fill="#144975"/><line x1="243.95" y1="166.77" x2="198.61" y2="143.52" fill="#156689"/><path d="M244.71,165.47l-45.35-23.24c-1.72-.88-3.23,1.71-1.51,2.59l45.35,23.24c1.72.88,3.23-1.71,1.51-2.59Z" fill="#144975"/><line x1="243.95" y1="174.15" x2="198.05" y2="149.63" fill="#156689"/><path d="M244.71,172.85l-45.9-24.51c-1.7-.91-3.22,1.68-1.51,2.59l45.9,24.51c1.7.91,3.22-1.68,1.51-2.59Z" fill="#144975"/><path d="M245.32,101.58a52.34,52.34,0,0,1-1.6-5.05c-.2-1.21,1-5.81.16-6.07S242,93.32,242,93.32s-2.5-5.64-3.18-5.91-2.71-.45-3.2.06-1.84,3.8-1.24,4.92a64.16,64.16,0,0,0,4.22,5.76c.22.17,2.85,5.83,3.2,6S245.06,102.84,245.32,101.58Z" fill="#ffc9b5"/><path d="M272.75,119.83s-13.74-5.43-16.13-7.4-11-12.12-11-12.12-5,1.83-4.94,4.34c0,0,7,11.69,10.25,14.82s15.11,11,17.71,10.82S272.75,119.83,272.75,119.83Z" fill="#c93535"/><path d="M264,231s-3.28-2.8-7-1.72-2.92,3.84-.6,5.57,11.25,7.74,14,7.68,3.35-2.27,3.41-3.79a70.16,70.16,0,0,0-.81-7" fill="#2c1d1a"/><path d="M266,230.84a.7.7,0,0,1-.92.57,26.85,26.85,0,0,1-2.93-1.12s-3.17,0-1.24,3.17,8.58,4.1,10.63,2.92.68-4.54.68-4.54" fill="#2c1d1a"/><path d="M256.25,237.22s-3.28-2.8-7-1.72-2.92,3.84-.6,5.57,11.25,7.74,14,7.68,3.35-2.27,3.41-3.79a70.16,70.16,0,0,0-.81-7" fill="#2c1d1a"/><path d="M258.29,237a.7.7,0,0,1-.92.57,26.85,26.85,0,0,1-2.93-1.12s-3.17,0-1.24,3.17,8.58,4.1,10.63,2.92.68-4.54.68-4.54" fill="#ffc9b5"/><path d="M254.85,150.76c-1.07,2.42-1.65,37.07-1.24,46S258.29,237,258.29,237s2.43,3.69,6.53,3.43,3.3-3.56,3.3-3.56,5.24,2.43,7.53-2.91c.85-2,4.84-57.21,4.84-63.5a43.87,43.87,0,0,0-6-21.36" fill="#2c1d1a"/><path d="M268.13,236.89s2.49-70,2.17-72.07.68,15.35.61,20.11C270.87,188.33,268.81,232.12,268.13,236.89Z" fill="#6d5854"/><path d="M254.85,150.76s-3.62-24.79,1.53-29.47,19.46-8,22.13-5.67-1.34,28.62-4,33.5S256.75,152.67,254.85,150.76Z" fill="#ea5353"/><path d="M261.37,103.05c-.12.35-2.66,10,1.77,11.4s5.32-3.89,5.76-4.19,1.83-.77,1.76-1.84-1.75-1.09-1.75-1.09-.65-2.8-2.64-4S261.37,103.05,261.37,103.05Z" fill="#ffc9b5"/><path d="M265.5,105.78s-3.7.06-5.3-1.52a3.11,3.11,0,0,1,.26-4.57S259,96.75,261.76,96c0,0,.25-2.69,5.75-1.46S278,99.7,278.1,104.73s.44,5.61,2.22,6.76,1.29,5.56-3.47,5.74S265.61,117,265,114.64s3-2.6,3.45-5A3.43,3.43,0,0,0,265.5,105.78Z" fill="#2c1d1a"/><path d="M247.7,147.19s-3.81,4.06-4.91,4.5a34.11,34.11,0,0,0-4.84,2.71A8.51,8.51,0,0,1,239.3,156a.52.52,0,0,1,0,.06c.49-.35.83-.61.82-.43,0,.57-3.75,5.45-4.32,6.19s1,3.16,1,3.16c2.42.81,5.21-1.64,7-3.3s2.62-5.5,3.24-6,5.73-3.87,6.09-4.92S247.7,147.19,247.7,147.19Z" fill="#ffc9b5"/><path d="M255.2,123.06c-1,2.21-1,4.63-1.42,7-.33,1.69-.67,3.46-1.06,5.17a16.31,16.31,0,0,1-1.62,5c-1.4,2.33-3.22,4.35-4.81,6.54a4,4,0,0,0-.93,1.68c-.15,1.53,1.78,5.89,7.13,5.35A66.3,66.3,0,0,0,260,146.6c3-3.53,5.84-15.47,5.55-19.44-.2-2.7-1.67-5.72-4.23-6.9a4.48,4.48,0,0,0-5,1.13A6,6,0,0,0,255.2,123.06Z" fill="#ea5353"/><path d="M255.5,151.18s4.47-3.8,5.57-6.09,2.53-6.41,2.53-6.41-2.07,11.91-4.05,13.5A22.92,22.92,0,0,1,255.5,151.18Z" fill="#2c1d1a"/><path d="M203.27,110.8l1.32.74a.88.88,0,0,1,.39.39,1,1,0,0,1,.05.57.65.65,0,0,1-.15.38.24.24,0,0,1-.29,0l.47,1.08.74-.42a.49.49,0,0,1-.24-.29,1.24,1.24,0,0,1,0-.5.48.48,0,0,1,.21-.38.47.47,0,0,1,.43.06l1.17.65a1.18,1.18,0,0,1,.5.45.93.93,0,0,1,.08.6c0,.23-.11.36-.23.41a.55.55,0,0,1-.47-.08l0,0-.21-.11-1.36.76,1.12,2.32.13.07a1.08,1.08,0,0,1,.45.44.94.94,0,0,1,.09.59c0,.24-.13.38-.25.43a.73.73,0,0,1-.52-.12l0,0-1.32-.74a.86.86,0,0,1-.38-.38.9.9,0,0,1-.07-.54.7.7,0,0,1,.16-.41c.07-.06.17-.06.29,0l0,0-.56-1.25L204,116h0a.56.56,0,0,1,.26.3.89.89,0,0,1,0,.47q0,.35-.21.43c-.1.06-.25,0-.43-.06l-1.17-.64a1.25,1.25,0,0,1-.5-.46.92.92,0,0,1-.07-.6.51.51,0,0,1,.23-.42.55.55,0,0,1,.47.08l.1.06,1.53-.75-1-2.19-.17-.09a1.2,1.2,0,0,1-.46-.43.93.93,0,0,1-.08-.59c0-.24.12-.38.24-.43A.73.73,0,0,1,203.27,110.8Z" fill="#124577"/><path d="M218.22,118.91a1.77,1.77,0,0,1,.53.44,2,2,0,0,1,.34.65,1,1,0,0,1,.6-.13,1.53,1.53,0,0,1,.62.19l0,0a2.07,2.07,0,0,1,1,1.09,3.62,3.62,0,0,1,.07,1.82l-.36,2.32.08,0a.8.8,0,0,1,.36.38.76.76,0,0,0-.19.43,1.09,1.09,0,0,0,0,.57h0a.52.52,0,0,1-.45-.08l0,0-.93-.51a.66.66,0,0,1-.22-.2.37.37,0,0,1-.05-.24l.54-3.45a1.53,1.53,0,0,0,0-.67.62.62,0,0,0-.3-.39.36.36,0,0,0-.47,0,1.25,1.25,0,0,0-.27.69l-.33,2.15.08,0a.78.78,0,0,1,.36.38,1.08,1.08,0,0,1,.05.57c0,.24-.11.39-.22.44a.5.5,0,0,1-.44-.08l0,0-.93-.52a.63.63,0,0,1-.23-.2.37.37,0,0,1-.05-.24l.54-3.45a1.7,1.7,0,0,0,0-.68.59.59,0,0,0-.29-.38h0a.36.36,0,0,0-.45,0,1.17,1.17,0,0,0-.28.69l-.33,2.14.08.05a.79.79,0,0,1,.36.37,1.09,1.09,0,0,1,.05.57c0,.24-.11.39-.22.44s-.27,0-.48-.1l-1.24-.69a1,1,0,0,1-.43-.41,1,1,0,0,1-.06-.59.57.57,0,0,1,.2-.42.36.36,0,0,1,.38,0l0,0,.08,0,.47-3-.08-.05a.8.8,0,0,1-.37-.38,1.07,1.07,0,0,1-.05-.57c0-.24.11-.38.22-.44s.27,0,.49.1l.74.41a.63.63,0,0,1,.29.27.82.82,0,0,1,0,.43.89.89,0,0,1,.56-.2A1.35,1.35,0,0,1,218.22,118.91Z" fill="#124577"/><path d="M209.95,114.5l0,0,1.33.73a.92.92,0,0,1,.39.39,1,1,0,0,1,.06.58.62.62,0,0,1-.15.37c-.07.07-.16.06-.28,0l.46,1.09.75-.42a.46.46,0,0,1-.24-.28,1.08,1.08,0,0,1,0-.5.5.5,0,0,1,.21-.39.47.47,0,0,1,.43.06l1.17.64a1.27,1.27,0,0,1,.5.45.94.94,0,0,1,.07.61c0,.22-.11.36-.23.41a.62.62,0,0,1-.51-.1l-.21-.12-1.36.77,1.12,2.31.13.08a1.06,1.06,0,0,1,.46.43.94.94,0,0,1,.08.6c0,.24-.12.38-.25.42a.75.75,0,0,1-.56-.13l-1.32-.74a.87.87,0,0,1-.38-.39.82.82,0,0,1-.07-.53.72.72,0,0,1,.15-.42c.08-.07.17-.07.29,0l0,0-.56-1.25-.81.49h0a.51.51,0,0,1,.27.3,1,1,0,0,1,0,.47.59.59,0,0,1-.21.43.43.43,0,0,1-.4,0l0,0-1.17-.64a1.25,1.25,0,0,1-.5-.45.93.93,0,0,1-.07-.61c0-.22.11-.36.23-.42a.48.48,0,0,1,.44.06l0,0,.1.05,1.52-.76-1-2.18-.17-.1a1.07,1.07,0,0,1-.46-.43.88.88,0,0,1-.09-.58c0-.24.12-.38.24-.43A.72.72,0,0,1,209.95,114.5Z" fill="#124577"/><path d="M236.62,129.23,238,130a1.26,1.26,0,0,1,.51.45,1,1,0,0,1,.08.6.51.51,0,0,1-.23.41.54.54,0,0,1-.48-.07l-.09-.05.57,3.15,1.44-2-.09,0a1,1,0,0,1-.42-.42.93.93,0,0,1-.08-.59c0-.24.12-.38.24-.43a.7.7,0,0,1,.51.12l.05,0,1.29.71a1.26,1.26,0,0,1,.51.45,1,1,0,0,1,.08.6.54.54,0,0,1-.23.42.55.55,0,0,1-.47-.08l-.1-.05L238,137.33l.25.13a1.3,1.3,0,0,1,.51.45,1,1,0,0,1,.08.61c0,.24-.12.38-.24.43a.7.7,0,0,1-.51-.11l0,0-2.39-1.32a1.26,1.26,0,0,1-.51-.45.89.89,0,0,1-.08-.6c0-.25.11-.39.24-.44a.65.65,0,0,1,.51.11l.05,0,.85.47.71-.95-1-5.08-.09-.05a1,1,0,0,1-.42-.41,1,1,0,0,1-.08-.59c0-.24.12-.38.24-.43A.77.77,0,0,1,236.62,129.23Z" fill="#124577"/><path d="M229.85,125.49l.05,0,1.39.77a1.29,1.29,0,0,1,.51.44,1,1,0,0,1,.08.6.5.5,0,0,1-.24.41.47.47,0,0,1-.43-.05l0,0-.1-.05.58,3.15,1.44-2-.09,0a1,1,0,0,1-.43-.42,1,1,0,0,1-.07-.59q0-.36.23-.42a.68.68,0,0,1,.51.11l0,0,1.28.71a1.21,1.21,0,0,1,.52.46.88.88,0,0,1,.07.59.5.5,0,0,1-.23.42.49.49,0,0,1-.44-.06l0,0-.1-.05-3.09,4.16.25.14a1.19,1.19,0,0,1,.5.45,1,1,0,0,1,.08.62c0,.23-.12.38-.24.42a.75.75,0,0,1-.56-.13l-2.4-1.33a1.28,1.28,0,0,1-.51-.45,1,1,0,0,1-.08-.6c0-.24.12-.38.24-.43a.7.7,0,0,1,.51.11l0,0,.85.47.7-.94-1-5.09-.09,0a1,1,0,0,1-.43-.42.92.92,0,0,1-.07-.58c0-.24.11-.39.24-.43A.7.7,0,0,1,229.85,125.49Z" fill="#124577"/><path d="M224.89,122.6l0,0a1.69,1.69,0,0,1,.53.44,2.15,2.15,0,0,1,.34.65,1.08,1.08,0,0,1,.6-.12,1.55,1.55,0,0,1,.62.19l0,0a2,2,0,0,1,1,1.08,3.75,3.75,0,0,1,.07,1.83l-.36,2.31.07,0a.76.76,0,0,1,.36.38,1,1,0,0,1,.06.56c0,.25-.11.39-.22.46s-.27,0-.48-.1l-.93-.52a.52.52,0,0,1-.22-.2.29.29,0,0,1,0-.23l.53-3.46a1.47,1.47,0,0,0,0-.67.62.62,0,0,0-.31-.39h0a.35.35,0,0,0-.44,0,1.23,1.23,0,0,0-.27.7l-.34,2.14.08,0a.84.84,0,0,1,.36.38,1,1,0,0,1,.05.57c0,.25-.11.39-.22.45s-.27,0-.49-.09l-.93-.52a.61.61,0,0,1-.22-.2.33.33,0,0,1-.06-.24l.54-3.46a1.45,1.45,0,0,0,0-.67.63.63,0,0,0-.29-.39.38.38,0,0,0-.48,0,1.23,1.23,0,0,0-.27.7l-.34,2.14.08,0a.8.8,0,0,1,.36.38.94.94,0,0,1,.05.57c0,.24-.11.39-.22.45a.53.53,0,0,1-.45-.08l0,0-1.24-.68a1,1,0,0,1-.43-.41v0a1.09,1.09,0,0,1,0-.57.64.64,0,0,1,.2-.41.41.41,0,0,1,.42,0l.08,0,.46-3-.08,0a.8.8,0,0,1-.37-.39,1,1,0,0,1-.06-.58c0-.23.11-.38.22-.43a.53.53,0,0,1,.45.08l0,0,.74.41a.59.59,0,0,1,.29.27.75.75,0,0,1,0,.43.9.9,0,0,1,.56-.21A1.36,1.36,0,0,1,224.89,122.6Z" fill="#124577"/></svg>