<svg xmlns="http://www.w3.org/2000/svg" version="1.1" xmlns:xlink="http://www.w3.org/1999/xlink" xmlns:svgjs="http://svgjs.dev/svgjs" width="1000" height="684" viewBox="0 0 1000 684"><g transform="matrix(1,0,0,1,0.07745810970271805,0.5134595697802524)"><svg viewBox="0 0 361 247" data-background-color="#4d2a8c" preserveAspectRatio="xMidYMid meet" height="684" width="1000" xmlns="http://www.w3.org/2000/svg" xmlns:xlink="http://www.w3.org/1999/xlink"><g id="tight-bounds" transform="matrix(1,0,0,1,-0.027962377602676725,-0.09999999999999432)"><svg viewBox="0 0 361.05592475520535 247.2" height="247.2" width="361.05592475520535"><g><svg viewBox="0 0 397.4975999999999 272.15010191737156" height="247.2" width="361.05592475520535"><g><rect width="397.4975999999999" height="7.78505050878479" x="0" y="139.68351334737952" fill="#fbfbfb" opacity="1" stroke-width="0" stroke="transparent" fill-opacity="1" class="rect-r$-0" data-fill-palette-color="primary" rx="1%" id="r$-0" data-palette-color="#fbfbfb"></rect></g><g><rect width="397.4975999999999" height="7.78505050878479" x="0" y="157.65842054305537" fill="#fbfbfb" opacity="1" stroke-width="0" stroke="transparent" fill-opacity="1" class="rect-r$-1" data-fill-palette-color="primary" rx="1%" id="r$-1" data-palette-color="#fbfbfb"></rect></g><g transform="matrix(1,0,0,1,0.9887999999999693,185.82318442562234)"><svg viewBox="0 0 395.52 86.32691749174916" height="86.32691749174916" width="395.52"><g id="textblocktransform"><svg viewBox="0 0 395.52 86.32691749174916" height="86.32691749174916" width="395.52" id="textblock"><g><svg viewBox="0 0 395.52 86.32691749174916" height="86.32691749174916" width="395.52"><g transform="matrix(1,0,0,1,0,0)"><svg width="395.52" viewBox="1.5 -37.5 227.23 49.6" height="86.32691749174916" data-palette-color="#fbfbfb"><path d="M16.35 0.7Q12.05 0.7 8.68-1.55 5.3-3.8 3.4-7.93 1.5-12.05 1.5-17.5L1.5-17.5Q1.5-22.95 3.4-27.08 5.3-31.2 8.68-33.45 12.05-35.7 16.35-35.7L16.35-35.7Q20.65-35.7 24-33.45 27.35-31.2 29.25-27.08 31.15-22.95 31.15-17.5L31.15-17.5Q31.15-12.05 29.25-7.93 27.35-3.8 24-1.55 20.65 0.7 16.35 0.7L16.35 0.7ZM16.35-3.85Q21.15-3.85 23.73-7.68 26.3-11.5 26.3-17.5L26.3-17.5Q26.3-23.5 23.73-27.33 21.15-31.15 16.35-31.15L16.35-31.15Q11.55-31.15 8.95-27.33 6.35-23.5 6.35-17.5L6.35-17.5Q6.35-11.5 8.95-7.68 11.55-3.85 16.35-3.85L16.35-3.85ZM45.8-25Q48.75-25 50.97-23.33 53.2-21.65 54.37-18.75 55.55-15.85 55.55-12.25L55.55-12.25Q55.55-6.65 53-3.08 50.45 0.5 45.8 0.5L45.8 0.5Q43.9 0.5 42.27-0.18 40.65-0.85 39.5-2.15L39.5-2.15 39.5 12.1 35.15 12.1 35.15-24.5 38.5-24.5 38.9-21.55Q41.55-25 45.8-25L45.8-25ZM45-3.35Q47.85-3.35 49.47-5.7 51.1-8.05 51.1-12.25L51.1-12.25Q51.1-16.4 49.47-18.75 47.85-21.1 45-21.1L45-21.1Q43.5-21.1 42.1-20.1 40.7-19.1 39.82-17.1 38.95-15.1 38.95-12.25L38.95-12.25Q38.95-9.3 39.82-7.3 40.7-5.3 42.07-4.33 43.45-3.35 45-3.35L45-3.35ZM69.6 0.5Q65.9 0.5 63.27-1.23 60.65-2.95 59.32-5.9 58-8.85 58-12.45L58-12.45Q58-15.9 59.22-18.78 60.45-21.65 62.77-23.33 65.1-25 68.3-25L68.3-25Q72.4-25 74.97-22.25 77.55-19.5 77.55-14.65L77.55-14.65Q77.55-13.8 77.35-12.3L77.35-12.3 62.45-12.3Q62.6-7.95 64.62-5.7 66.65-3.45 69.9-3.45L69.9-3.45Q71.45-3.45 73.17-3.83 74.9-4.2 76.2-4.9L76.2-4.9 76.6-1Q73.85 0.5 69.6 0.5L69.6 0.5ZM62.65-15.35L73.1-15.35Q73.1-17.85 71.87-19.43 70.65-21 68.35-21L68.35-21Q66.1-21 64.62-19.6 63.15-18.2 62.65-15.35L62.65-15.35ZM91.84-25Q95.64-25 97.67-22.03 99.69-19.05 99.69-14L99.69-14 99.69 0 95.34 0 95.34-13.45Q95.34-17.35 94.22-19.23 93.09-21.1 90.84-21.1L90.84-21.1Q89.19-21.1 87.79-20.18 86.39-19.25 85.44-17.6L85.44-17.6 85.44 0 81.09 0 81.09-24.5 84.79-24.5 85.09-21.45Q86.14-23.1 87.92-24.05 89.69-25 91.84-25L91.84-25ZM134.89 0L129.99 0 127.69-25.3 119.24-7.25 110.79-25.3 108.44 0 103.59 0 107.39-35 111.24-35 119.24-16.95 127.24-35 131.09-35 134.89 0ZM144.04 0.5Q141.24 0.5 139.44-1.5 137.64-3.5 137.64-6.6L137.64-6.6Q137.64-11.2 141.49-13.23 145.34-15.25 150.09-15.35L150.09-15.35Q150.09-18.55 149.14-19.8 148.19-21.05 145.94-21.05L145.94-21.05Q143.04-21.05 140.04-18.8L140.04-18.8 139.49-22.45Q142.64-25 146.79-25L146.79-25Q150.74-25 152.64-22.73 154.54-20.45 154.54-15.4L154.54-15.4 154.54-8.25Q154.54-5.4 154.94-4.23 155.34-3.05 156.69-3.05L156.69-3.05 157.24-3.05 156.69 0.5 155.74 0.5Q153.44 0.5 152.34-0.35 151.24-1.2 150.54-3.1L150.54-3.1Q149.39-1.45 147.69-0.48 145.99 0.5 144.04 0.5L144.04 0.5ZM145.39-3.05Q146.59-3.05 147.89-3.98 149.19-4.9 150.09-6.4L150.09-6.4 150.09-12.25Q146.24-12.05 144.24-10.78 142.24-9.5 142.24-6.85L142.24-6.85Q142.24-3.05 145.39-3.05L145.39-3.05ZM160.99 0L160.99-24.5 164.54-24.5 165.09-20.4Q166.74-22.8 168.21-23.9 169.69-25 171.34-25L171.34-25Q171.99-25 172.49-24.85L172.49-24.85 172.04-19.9Q171.39-20.05 170.54-20.05L170.54-20.05Q168.89-20.05 167.44-19.23 165.99-18.4 165.34-17.3L165.34-17.3 165.34 0 160.99 0ZM175.93 0L175.93-37.5 180.28-37.5 180.28-13.4 187.63-24.5 192.83-24.5 184.73-13.2 192.98 0 187.73 0 180.28-12.5 180.28 0 175.93 0ZM205.83 0.5Q202.13 0.5 199.51-1.23 196.88-2.95 195.56-5.9 194.23-8.85 194.23-12.45L194.23-12.45Q194.23-15.9 195.46-18.78 196.68-21.65 199.01-23.33 201.33-25 204.53-25L204.53-25Q208.63-25 211.21-22.25 213.78-19.5 213.78-14.65L213.78-14.65Q213.78-13.8 213.58-12.3L213.58-12.3 198.68-12.3Q198.83-7.95 200.86-5.7 202.88-3.45 206.13-3.45L206.13-3.45Q207.68-3.45 209.41-3.83 211.13-4.2 212.43-4.9L212.43-4.9 212.83-1Q210.08 0.5 205.83 0.5L205.83 0.5ZM198.88-15.35L209.33-15.35Q209.33-17.85 208.11-19.43 206.88-21 204.58-21L204.58-21Q202.33-21 200.86-19.6 199.38-18.2 198.88-15.35L198.88-15.35ZM224.68 0.5Q221.83 0.5 220.45-1.2 219.08-2.9 219.08-5.35L219.08-5.35 219.08-21.05 215.68-21.05 216.08-24.5 219.08-24.5 219.08-30.55 223.43-31 223.43-24.5 228.73-24.5 228.73-21.05 223.43-21.05 223.43-7.1Q223.43-4.85 224.25-3.95 225.08-3.05 227.13-3.05L227.13-3.05 228.68-3.05 228.28 0.5 224.68 0.5Z" opacity="1" transform="matrix(1,0,0,1,0,0)" fill="#fbfbfb" class="wordmark-text-0" data-fill-palette-color="primary" id="text-0"></path></svg></g></svg></g></svg></g></svg></g><g transform="matrix(1,0,0,1,101.68376475936041,0)"><svg viewBox="0 0 194.1300704812791 119.30379997359735" height="119.30379997359735" width="194.1300704812791"><g><svg xmlns="http://www.w3.org/2000/svg" data-name="Layer 1" viewBox="2.430551295781235 20.791724898981606 95.13905147020833 58.4682751010184" x="0" y="0" height="119.30379997359735" width="194.1300704812791" class="icon-icon-0" data-fill-palette-color="accent" id="icon-0"><path d="M62.78 23l32 55.42 1.3-2.26h-64l1.3 2.26L65.37 23a1.5 1.5 0 0 0-2.59-1.51L30.79 77a1.51 1.51 0 0 0 1.3 2.26h64A1.51 1.51 0 0 0 97.37 77l-32-55.42A1.5 1.5 0 0 0 62.78 23Z" fill="#2f76db" data-fill-palette-color="accent"></path><path d="M34.63 23l32 55.42 1.3-2.26h-64l1.3 2.26L37.22 23a1.5 1.5 0 0 0-2.59-1.51L2.63 77a1.51 1.51 0 0 0 1.3 2.26h64A1.51 1.51 0 0 0 69.21 77l-32-55.42A1.5 1.5 0 0 0 34.63 23Z" fill="#2f76db" data-fill-palette-color="accent"></path></svg></g></svg></g><g></g></svg></g><defs></defs></svg><rect width="361.05592475520535" height="247.2" fill="none" stroke="none" visibility="hidden"></rect></g></svg></g></svg>